<svg width="12" height="12" viewBox="0 0 12 12" fill="none" xmlns="http://www.w3.org/2000/svg">
<path fill-rule="evenodd" clip-rule="evenodd" d="M-2.29485e-07 6C-2.47591e-07 5.58579 0.335786 5.25 0.75 5.25L9.43934 5.25L6.21967 2.03033C5.92678 1.73744 5.92678 1.26256 6.21967 0.96967C6.51256 0.676777 6.98744 0.676777 7.28033 0.96967L11.7803 5.46967C12.0732 5.76256 12.0732 6.23744 11.7803 6.53033L7.28033 11.0303C6.98744 11.3232 6.51256 11.3232 6.21967 11.0303C5.92678 10.7374 5.92678 10.2626 6.21967 9.96967L9.43934 6.75L0.75 6.75C0.335786 6.75 -2.11379e-07 6.41421 -2.29485e-07 6Z" fill="#0E1526"/>
</svg>
