<svg width="14" height="17" viewBox="0 0 14 17" fill="none" xmlns="http://www.w3.org/2000/svg">
<path fill-rule="evenodd" clip-rule="evenodd" d="M10.4997 3.93766C13.8478 5.87065 14.9949 10.1518 13.0619 13.4998C11.1289 16.8479 6.84775 17.995 3.4997 16.062C0.151656 14.129 -0.995471 9.84788 0.937526 6.49983C1.10592 6.20816 1.29214 5.93319 1.49401 5.67551C1.69562 5.41815 2.08463 5.45707 2.28714 5.71371C2.56487 6.06569 2.88119 6.3858 3.22971 6.66767C3.56235 6.9367 4.01647 6.61946 4.00304 6.19186C4.00103 6.12815 4.00003 6.06419 4.00003 6C4.00003 5.08146 4.20643 4.21113 4.57539 3.43285C5.10854 2.30825 5.98111 1.37586 7.06079 0.768014C7.30778 0.628962 7.61125 0.752233 7.73775 1.00587C8.32971 2.19273 9.26506 3.22483 10.4997 3.93766ZM11 11C11 13.2092 9.20916 15 7.00002 15C5.08674 15 3.4791 13.6016 3.09017 11.8184C2.9966 11.3894 3.52967 11.1749 3.90396 11.4045C4.38998 11.7026 4.93731 11.8965 5.50538 11.9685C5.80801 12.0069 6.03609 11.729 6.01482 11.4247C6.00501 11.2844 6.00002 11.1428 6.00002 11C6.00002 9.57313 6.49812 8.26257 7.32992 7.23273C7.43373 7.1042 7.59896 7.04111 7.7612 7.07236C9.6063 7.42783 11 9.05117 11 11Z" fill="#47DEFF"/>
</svg>
