<svg width="15" height="17" viewBox="0 0 15 17" fill="none" xmlns="http://www.w3.org/2000/svg">
<path fill-rule="evenodd" clip-rule="evenodd" d="M10.7497 3.43766C14.0978 5.37065 15.2449 9.65179 13.3119 12.9998C11.3789 16.3479 7.09775 17.495 3.7497 15.562C0.401656 13.629 -0.745471 9.34788 1.18753 5.99983C1.35592 5.70816 1.54214 5.43319 1.74401 5.17551C1.94562 4.91815 2.33463 4.95707 2.53714 5.21371C2.81487 5.56569 3.13119 5.8858 3.47971 6.16767C3.81235 6.4367 4.26647 6.11946 4.25304 5.69186C4.25103 5.62815 4.25003 5.56419 4.25003 5.5C4.25003 4.58146 4.45643 3.71113 4.82539 2.93285C5.35854 1.80825 6.23111 0.875863 7.31079 0.268014C7.55778 0.128962 7.86125 0.252233 7.98775 0.505875C8.57971 1.69273 9.51506 2.72483 10.7497 3.43766ZM11.25 10.5C11.25 12.7092 9.45916 14.5 7.25002 14.5C5.33674 14.5 3.7291 13.1016 3.34017 11.3184C3.2466 10.8894 3.77967 10.6749 4.15396 10.9045C4.63998 11.2026 5.18731 11.3965 5.75538 11.4685C6.05801 11.5069 6.28609 11.229 6.26482 10.9247C6.25501 10.7844 6.25002 10.6428 6.25002 10.5C6.25002 9.07313 6.74812 7.76257 7.57992 6.73273C7.68373 6.6042 7.84896 6.54111 8.0112 6.57236C9.8563 6.92783 11.25 8.55117 11.25 10.5Z" fill="#0E1526"/>
</svg>
