<svg width="18" height="16" viewBox="0 0 18 16" fill="none" xmlns="http://www.w3.org/2000/svg">
<path d="M16.258 1.04543C16.258 1.04543 17.8769 0.414183 17.742 1.94722C17.697 2.57848 17.2923 4.78785 16.9775 7.1776L15.8983 14.2566C15.8983 14.2566 15.8084 15.2937 14.9989 15.4741C14.1895 15.6544 12.9753 14.8428 12.7505 14.6624C12.5706 14.5272 9.37783 12.4981 8.25358 11.5062C7.93879 11.2356 7.57904 10.6946 8.29854 10.0633L13.0203 5.5544C13.5599 5.01331 14.0995 3.75081 11.8511 5.28385L5.55546 9.56735C5.55546 9.56735 4.83596 10.0182 3.48692 9.61244L0.563925 8.71064C0.563925 8.71064 -0.515329 8.03431 1.3284 7.35794C5.82529 5.23873 11.3565 3.07444 16.258 1.04543Z" fill="#0E1526"/>
</svg>
