<svg width="22" height="18" viewBox="0 0 22 18" fill="none" xmlns="http://www.w3.org/2000/svg">
<path d="M19.7096 0.654495C19.7096 0.654495 21.6523 -0.103005 21.4904 1.73664C21.4364 2.49415 20.9508 5.1454 20.573 8.0131L19.2779 16.5079C19.2779 16.5079 19.17 17.7524 18.1987 17.9688C17.2273 18.1852 15.7704 17.2113 15.5005 16.9949C15.2847 16.8326 11.4534 14.3977 10.1043 13.2074C9.72655 12.8827 9.29485 12.2334 10.1582 11.4759L15.8243 6.06525C16.4719 5.41595 17.1194 3.90095 14.4213 5.7406L6.86655 10.8808C6.86655 10.8808 6.00315 11.4218 4.3843 10.9349L0.87671 9.85275C0.87671 9.85275 -0.418395 9.04115 1.79408 8.2295C7.19035 5.68645 13.8277 3.0893 19.7096 0.654495Z" fill="white"/>
</svg>
