<svg width="18" height="16" viewBox="0 0 18 16" fill="none" xmlns="http://www.w3.org/2000/svg">
<path d="M4.12744 1.50197C4.16817 1.50066 4.20906 1.5 4.25011 1.5H13.7501C13.7912 1.5 13.832 1.50066 13.8728 1.50197C13.5645 0.627047 12.7305 0 11.7501 0H6.25011C5.26971 0 4.43576 0.627046 4.12744 1.50197Z" fill="white"/>
<path d="M0 8.25C0 7.00736 1.00736 6 2.25 6H15.75C16.9926 6 18 7.00736 18 8.25V13.75C18 14.9926 16.9926 16 15.75 16H2.25C1.00736 16 0 14.9926 0 13.75V8.25Z" fill="white"/>
<path d="M2.25011 4.5C2.20906 4.5 2.16817 4.50066 2.12744 4.50197C2.43576 3.62705 3.26971 3 4.25011 3H13.7501C14.7305 3 15.5645 3.62705 15.8728 4.50197C15.832 4.50066 15.7912 4.5 15.7501 4.5H2.25011Z" fill="white"/>
</svg>
