<svg width="22" height="20" viewBox="0 0 22 20" fill="none" xmlns="http://www.w3.org/2000/svg">
<path d="M10.3447 1.84099C10.6376 1.5481 11.1124 1.5481 11.4053 1.84099L20.0947 10.5303C20.3876 10.8232 20.8624 10.8232 21.1553 10.5303C21.4482 10.2374 21.4482 9.76257 21.1553 9.46967L12.466 0.780332C11.5873 -0.0983483 10.1627 -0.0983462 9.28401 0.780333L0.59467 9.46967C0.301777 9.76257 0.301777 10.2374 0.59467 10.5303C0.887563 10.8232 1.36244 10.8232 1.65533 10.5303L10.3447 1.84099Z" fill="white"/>
<path d="M10.875 3.43198L19.034 11.591C19.0637 11.6207 19.0941 11.6494 19.125 11.6771V17.875C19.125 18.9105 18.2855 19.75 17.25 19.75H13.875C13.4608 19.75 13.125 19.4142 13.125 19V14.5C13.125 14.0858 12.7892 13.75 12.375 13.75H9.375C8.96079 13.75 8.625 14.0858 8.625 14.5V19C8.625 19.4142 8.28921 19.75 7.875 19.75H4.5C3.46447 19.75 2.625 18.9105 2.625 17.875V11.6771C2.65593 11.6494 2.68627 11.6207 2.71599 11.591L10.875 3.43198Z" fill="white"/>
</svg>
