<svg width="22" height="22" viewBox="0 0 22 22" fill="none" xmlns="http://www.w3.org/2000/svg">
<path fill-rule="evenodd" clip-rule="evenodd" d="M4.54113 1.62136V2.4786C3.50626 2.62665 2.48216 2.80823 1.46997 3.02223C1.07645 3.10543 0.818615 3.48425 0.885569 3.88086C1.39602 6.90456 3.91515 9.24486 7.02415 9.48047C7.8098 10.1221 8.74355 10.5907 9.76658 10.827C9.66775 11.9952 9.2715 13.0776 8.6538 14H7.91588C6.88034 14 6.04088 14.8395 6.04088 15.875V18.5H5.29077C4.04813 18.5 3.04077 19.5074 3.04077 20.75C3.04077 21.1642 3.37656 21.5 3.79077 21.5H18.7908C19.205 21.5 19.5408 21.1642 19.5408 20.75C19.5408 19.5074 18.5334 18.5 17.2908 18.5H16.5409V15.875C16.5409 14.8395 15.7014 14 14.6659 14H13.9274C13.3099 13.0777 12.9139 11.9953 12.8152 10.8271C13.8384 10.5908 14.7723 10.1222 15.5581 9.48047C18.6671 9.24486 21.1863 6.90456 21.6967 3.88086C21.7637 3.48425 21.5058 3.10543 21.1123 3.02223C20.1001 2.80823 19.076 2.62665 18.0411 2.4786V1.62136C18.0411 1.24303 17.7594 0.92394 17.3839 0.877126C15.3877 0.628194 13.3542 0.5 11.2911 0.5C9.22807 0.5 7.19461 0.628194 5.19833 0.877126C4.82291 0.92394 4.54113 1.24303 4.54113 1.62136ZM4.54113 4.25C4.54113 5.44618 4.85262 6.56995 5.39838 7.54424C4.04126 6.9367 2.98876 5.76975 2.53503 4.33687C3.1987 4.20825 3.86752 4.09398 4.54113 3.99438V4.25ZM18.0411 4.25V3.99438C18.7148 4.09398 19.3836 4.20825 20.0472 4.33688C19.5935 5.76975 18.541 6.9367 17.1839 7.54424C17.7297 6.56995 18.0411 5.44618 18.0411 4.25Z" fill="white"/>
</svg>
