<svg width="22" height="22" viewBox="0 0 22 22" fill="none" xmlns="http://www.w3.org/2000/svg">
<path d="M15.8753 17.75H6.87526M15.8753 17.75C17.5321 17.75 18.8753 19.0931 18.8753 20.75H3.87526C3.87526 19.0931 5.2184 17.75 6.87526 17.75M15.8753 17.75V14.375C15.8753 13.7537 15.3716 13.25 14.7503 13.25H13.8786M6.87526 17.75V14.375C6.87526 13.7537 7.37894 13.25 8.00026 13.25H8.87189M13.8786 13.25H8.87189M13.8786 13.25C13.3313 12.3038 12.9847 11.227 12.8972 10.0777M8.87189 13.25C9.41922 12.3038 9.76579 11.227 9.85334 10.0777M4.62526 3.23636C3.64296 3.3792 2.67061 3.55275 1.70923 3.75601C2.15954 6.42349 4.37018 8.49282 7.10491 8.72775M4.62526 3.23636V3.5C4.62526 5.60778 5.59136 7.48992 7.10491 8.72775M4.62526 3.23636V1.72089C6.83068 1.41051 9.08422 1.25 11.3753 1.25C13.6663 1.25 15.9198 1.41051 18.1253 1.72089V3.23636M7.10491 8.72775C7.89248 9.37186 8.82829 9.84151 9.85334 10.0777M18.1253 3.23636V3.5C18.1253 5.60778 17.1592 7.48992 15.6456 8.72775M18.1253 3.23636C19.1076 3.3792 20.0799 3.55275 21.0413 3.75601C20.591 6.42349 18.3803 8.49282 15.6456 8.72775M15.6456 8.72775C14.858 9.37186 13.9222 9.84151 12.8972 10.0777M12.8972 10.0777C12.4081 10.1904 11.8986 10.25 11.3753 10.25C10.8519 10.25 10.3425 10.1904 9.85334 10.0777" stroke="white" stroke-width="1.5" stroke-linecap="round" stroke-linejoin="round"/>
</svg>
