<svg width="20" height="20" viewBox="0 0 20 20" fill="none" xmlns="http://www.w3.org/2000/svg">
<path d="M16.107 16.725C15.4083 15.7999 14.5042 15.0496 13.4662 14.5334C12.4281 14.0171 11.2844 13.749 10.125 13.75C8.96564 13.749 7.82188 14.0171 6.78382 14.5334C5.74575 15.0496 4.84174 15.7999 4.143 16.725M16.107 16.725C17.4705 15.5122 18.4321 13.9136 18.8662 12.1411C19.3002 10.3686 19.1853 8.5061 18.5365 6.80049C17.8877 5.09488 16.7357 3.62679 15.2334 2.59091C13.7311 1.55503 11.9493 1.00031 10.1245 1.00031C8.29966 1.00031 6.51793 1.55503 5.0156 2.59091C3.51327 3.62679 2.36133 5.09488 1.71253 6.80049C1.06374 8.5061 0.948749 10.3686 1.38282 12.1411C1.81688 13.9136 2.7795 15.5122 4.143 16.725M16.107 16.725C14.461 18.1932 12.3306 19.0032 10.125 19C7.91903 19.0034 5.78923 18.1934 4.143 16.725M13.125 7.75001C13.125 8.54566 12.8089 9.30872 12.2463 9.87133C11.6837 10.4339 10.9206 10.75 10.125 10.75C9.32935 10.75 8.56629 10.4339 8.00368 9.87133C7.44107 9.30872 7.125 8.54566 7.125 7.75001C7.125 6.95436 7.44107 6.1913 8.00368 5.62869C8.56629 5.06608 9.32935 4.75001 10.125 4.75001C10.9206 4.75001 11.6837 5.06608 12.2463 5.62869C12.8089 6.1913 13.125 6.95436 13.125 7.75001Z" stroke="white" stroke-width="1.5" stroke-linecap="round" stroke-linejoin="round"/>
</svg>
