<svg width="20" height="20" viewBox="0 0 20 20" fill="none" xmlns="http://www.w3.org/2000/svg">
<path fill-rule="evenodd" clip-rule="evenodd" d="M16.8104 17.0971C18.6971 15.3191 19.875 12.7971 19.875 10C19.875 4.61522 15.5098 0.25 10.125 0.25C4.74022 0.25 0.375 4.61522 0.375 10C0.375 12.7971 1.55285 15.3191 3.43963 17.0971C5.18512 18.7419 7.53734 19.75 10.125 19.75C12.7127 19.75 15.0649 18.7419 16.8104 17.0971ZM4.27012 15.8123C5.64461 14.0978 7.75661 13 10.125 13C12.4934 13 14.6054 14.0978 15.9799 15.8123C14.4853 17.3178 12.414 18.25 10.125 18.25C7.836 18.25 5.76473 17.3178 4.27012 15.8123ZM13.875 7C13.875 9.07107 12.1961 10.75 10.125 10.75C8.05393 10.75 6.375 9.07107 6.375 7C6.375 4.92893 8.05393 3.25 10.125 3.25C12.1961 3.25 13.875 4.92893 13.875 7Z" fill="white"/>
</svg>
