<svg width="21" height="20" viewBox="0 0 21 20" fill="none" xmlns="http://www.w3.org/2000/svg">
<path d="M2.375 2.5H3.52974C3.95447 2.5 4.32615 2.78555 4.43559 3.19594L4.75491 4.39341M6.75 11.875C5.36929 11.875 4.25 12.9943 4.25 14.375H17.375M6.75 11.875H16.0985C17.0328 9.9578 17.8481 7.97196 18.5348 5.92709C14.5667 4.91371 10.4088 4.375 6.125 4.375C5.66684 4.375 5.21012 4.38116 4.75491 4.39341M6.75 11.875L4.75491 4.39341M5.5 16.875C5.5 17.2202 5.22018 17.5 4.875 17.5C4.52982 17.5 4.25 17.2202 4.25 16.875C4.25 16.5298 4.52982 16.25 4.875 16.25C5.22018 16.25 5.5 16.5298 5.5 16.875ZM16.125 16.875C16.125 17.2202 15.8452 17.5 15.5 17.5C15.1548 17.5 14.875 17.2202 14.875 16.875C14.875 16.5298 15.1548 16.25 15.5 16.25C15.8452 16.25 16.125 16.5298 16.125 16.875Z" stroke="#0E1526" stroke-width="1.5" stroke-linecap="round" stroke-linejoin="round"/>
</svg>
