<svg width="37" height="37" viewBox="0 0 37 37" fill="none" xmlns="http://www.w3.org/2000/svg">
<path fill-rule="evenodd" clip-rule="evenodd" d="M18.5 9.3125C18.5 4.23838 22.6134 0.125 27.6875 0.125C28.6135 0.125 29.5098 0.262406 30.3558 0.518832C30.7973 0.652638 31.1361 1.00838 31.2482 1.45585C31.3604 1.90331 31.2294 2.37679 30.9032 2.70298L25.0955 8.5107C25.2034 9.34297 25.5767 10.1452 26.2158 10.7842C26.8548 11.4233 27.657 11.7966 28.4893 11.9045L34.297 6.09683C34.6232 5.77064 35.0967 5.63964 35.5442 5.75178C35.9916 5.86392 36.3474 6.20273 36.4812 6.6442C36.7376 7.49023 36.875 8.38651 36.875 9.3125C36.875 14.3866 32.7616 18.5 27.6875 18.5C27.4241 18.5 27.1631 18.4889 26.9048 18.4671C25.1246 18.3166 23.6341 18.6429 22.8652 19.5765L10.3507 34.7727C9.25448 36.1038 7.62039 36.875 5.89595 36.875C2.70874 36.875 0.125 34.2913 0.125 31.1041C0.125 29.3796 0.896165 27.7455 2.22731 26.6493L17.4235 14.1348C18.3571 13.3659 18.6834 11.8754 18.5329 10.0952C18.5111 9.83694 18.5 9.57587 18.5 9.3125ZM4.70516 30.9688C4.70516 30.244 5.29278 29.6563 6.01766 29.6563H6.03078C6.75566 29.6563 7.34328 30.244 7.34328 30.9688V30.982C7.34328 31.7068 6.75566 32.2945 6.03078 32.2945H6.01766C5.29278 32.2945 4.70516 31.7068 4.70516 30.982V30.9688Z" fill="#47DEFF"/>
<path d="M15.1329 12.6205L11.2813 8.76887V6.03128C11.2813 5.57025 11.0394 5.14302 10.6441 4.90582L4.08155 0.968319C3.56512 0.658457 2.90407 0.739836 2.4782 1.1657L1.1657 2.4782C0.739836 2.90407 0.658457 3.56512 0.968319 4.08155L4.90582 10.6441C5.14302 11.0394 5.57025 11.2813 6.03128 11.2813H8.76887L12.3774 14.8898L15.1329 12.6205Z" fill="#47DEFF"/>
<path fill-rule="evenodd" clip-rule="evenodd" d="M19.4728 27.8252L26.7926 35.145C29.0991 37.4515 32.8388 37.4515 35.1453 35.145C37.4518 32.8385 37.4518 29.0988 35.1453 26.7923L29.3604 21.0074C28.814 21.0849 28.2555 21.1249 27.6877 21.1249C27.3504 21.1249 27.0156 21.1107 26.6838 21.0826C25.9938 21.0243 25.4894 21.0718 25.1656 21.1559C24.9843 21.203 24.9005 21.2497 24.8733 21.2675L19.4728 27.8252ZM25.4471 25.4469C25.9596 24.9344 26.7907 24.9344 27.3032 25.4469L30.5845 28.7282C31.097 29.2407 31.097 30.0718 30.5845 30.5843C30.0719 31.0969 29.2409 31.0969 28.7283 30.5843L25.4471 27.3031C24.9345 26.7905 24.9345 25.9595 25.4471 25.4469Z" fill="#47DEFF"/>
</svg>
