<svg width="14" height="12" viewBox="0 0 14 12" fill="none" xmlns="http://www.w3.org/2000/svg">
<path fill-rule="evenodd" clip-rule="evenodd" d="M2.62268e-07 6C2.80374e-07 6.41421 0.335787 6.75 0.75 6.75L11.3879 6.75L7.23017 10.7094C6.93159 10.9965 6.92228 11.4713 7.20938 11.7698C7.49647 12.0684 7.97125 12.0777 8.26983 11.7906L13.7698 6.54062C13.9169 6.39922 14 6.20401 14 6C14 5.79599 13.9169 5.60078 13.7698 5.45938L8.26983 0.209376C7.97125 -0.0777193 7.49647 -0.0684098 7.20938 0.230169C6.92228 0.528748 6.93159 1.00353 7.23017 1.29063L11.3879 5.25L0.75 5.25C0.335787 5.25 2.44163e-07 5.58579 2.62268e-07 6Z" fill="white"/>
</svg>
